# xmcd
#
# Track frame offsets: 
#        150
#        16474
#        37221
#        56522
#        72028
#        93218
#        112755
#        127483
#        143174
#        162664
#        178389
#        193580
#        212463
#
# Disc length: 3068 seconds
#
# Revision: 0
# Processed by: cddbd v1.5.2PL0 Copyright (c) Steve Scherf et al.
# Submitted via: ExactAudioCopy v0.99pb5
#
DISCID=c00bfa0d
DTITLE=Various Artist - KHP Music: Boppin and Rockin
DYEAR=2011
DGENRE=Beach
TTITLE0=John Thompson - She Makes Me Feel Good
TTITLE1=Mason Casey - Nine Times a Man
TTITLE2=King Tyrone - Smokehouse Brown
TTITLE3=Tommy Black - Long Legged Women
TTITLE4=Ms. Jody - Bop
TTITLE5=Angel Rissoff - Thought I Knew Her
TTITLE6=Paul Craver - Im Not Afraid
TTITLE7=Chick Willis - Keep Singing The Blues
TTITLE8=Donnie Ray - Who's Rockin' You
TTITLE9=Fantasy - Comin Home
TTITLE10=Carolina Soul Band - Don't Be Mad
TTITLE11=Albert Rogers - Don't You Wish It Was True
TTITLE12=Palmetto Groove - Palmetto Groovin
EXTD=
EXTT0=
EXTT1=
EXTT2=
EXTT3=
EXTT4=
EXTT5=
EXTT6=
EXTT7=
EXTT8=
EXTT9=
EXTT10=
EXTT11=
EXTT12=
PLAYORDER=
